<?xml version="1.0" encoding="UTF-8" standalone="no"?>
<!DOCTYPE svg PUBLIC "-//W3C//DTD SVG 1.1//EN" "http://www.w3.org/Graphics/SVG/1.1/DTD/svg11.dtd">
<svg width="100%" height="100%" viewBox="0 0 321 132" version="1.1" xmlns="http://www.w3.org/2000/svg" xmlns:xlink="http://www.w3.org/1999/xlink" xml:space="preserve" xmlns:serif="http://www.serif.com/" style="fill-rule:evenodd;clip-rule:evenodd;stroke-linejoin:round;stroke-miterlimit:1.41421;">
    <g transform="matrix(1,0,0,1,-3098,-2708)">
        <g id="logotype_white" transform="matrix(0.454053,-1.55855e-18,-1.92999e-18,0.37303,3101.92,2346.93)">
            <rect x="-6.562" y="967.932" width="704.763" height="353.859" style="fill:none;"/>
            <g transform="matrix(2.20238,9.20173e-18,1.13948e-17,2.68075,-4896.43,-6291.54)">
                <path d="M2294.55,2752.74L2294.55,2757.2C2296.28,2757.9 2297.49,2759.59 2297.49,2761.57C2297.49,2761.94 2297.45,2762.3 2297.37,2762.65C2298.56,2762.76 2299.74,2762.96 2300.88,2763.3C2301.25,2763.4 2301.61,2763.53 2301.97,2763.66C2302.67,2763.93 2303.34,2764.27 2303.99,2764.65C2304.67,2765.06 2305.32,2765.52 2305.94,2766.01C2306.15,2766.17 2306.35,2766.34 2306.55,2766.51C2306.77,2766.69 2306.98,2766.88 2307.19,2767.07C2307.64,2767.5 2308.05,2767.96 2308.43,2768.45C2309.63,2770 2310.47,2771.8 2310.99,2773.68C2311.1,2774.09 2311.2,2774.5 2311.28,2774.91C2311.38,2775.42 2311.46,2775.93 2311.5,2776.44L2311.51,2776.53L2311.51,2776.59C2311.54,2776.65 2311.58,2776.7 2311.61,2776.75C2311.77,2776.99 2311.93,2777.22 2312.09,2777.45C2312.17,2777.57 2312.17,2777.57 2312.24,2777.68C2312.47,2778.04 2312.68,2778.41 2312.82,2778.81C2312.91,2779.06 2312.97,2779.33 2313.02,2779.59C2313.14,2780.29 2313.11,2781.02 2312.89,2781.7C2312.8,2781.96 2312.68,2782.21 2312.53,2782.45L2312.51,2782.49C2313.04,2782.86 2313.58,2783.2 2314.14,2783.53L2314.21,2783.57C2314.29,2783.62 2314.31,2783.63 2314.39,2783.69C2314.5,2783.77 2314.61,2783.86 2314.71,2783.96C2315.14,2784.36 2315.46,2784.88 2315.61,2785.45C2315.66,2785.62 2315.69,2785.8 2315.71,2785.97C2315.72,2786.07 2315.72,2786.09 2315.72,2786.19C2315.74,2786.93 2315.72,2787.67 2315.72,2788.41C2315.72,2788.52 2315.72,2788.64 2315.71,2788.75C2315.68,2789.02 2315.62,2789.28 2315.53,2789.53C2315.37,2790.01 2315.09,2790.46 2314.74,2790.83C2314.4,2791.17 2314,2791.45 2313.56,2791.63C2313.29,2791.74 2313.01,2791.82 2312.72,2791.86C2312.58,2791.88 2312.43,2791.89 2312.29,2791.9C2299.32,2792.06 2286.34,2791.9 2273.37,2791.9C2273.22,2791.9 2273.08,2791.89 2272.94,2791.87C2272.71,2791.84 2272.48,2791.79 2272.26,2791.72C2271.86,2791.59 2271.48,2791.38 2271.15,2791.11C2270.69,2790.74 2270.33,2790.24 2270.11,2789.69C2269.99,2789.42 2269.92,2789.13 2269.88,2788.84C2269.87,2788.72 2269.86,2788.6 2269.85,2788.48C2269.85,2788.2 2269.85,2787.91 2269.85,2787.62C2269.85,2787.17 2269.86,2786.72 2269.86,2786.27C2269.86,2786.07 2269.88,2785.86 2269.92,2785.66C2270.04,2785.08 2270.32,2784.54 2270.72,2784.11C2270.84,2783.98 2270.97,2783.86 2271.11,2783.75C2271.19,2783.69 2271.28,2783.63 2271.37,2783.57C2271.53,2783.48 2271.69,2783.38 2271.86,2783.28C2272.27,2783.03 2272.68,2782.77 2273.07,2782.49L2273.08,2782.48L2273.04,2782.42L2272.98,2782.31C2272.92,2782.21 2272.91,2782.18 2272.86,2782.08C2272.77,2781.9 2272.7,2781.71 2272.65,2781.51C2272.47,2780.9 2272.46,2780.25 2272.56,2779.63C2272.6,2779.35 2272.66,2779.08 2272.76,2778.82C2272.91,2778.37 2273.16,2777.97 2273.41,2777.57C2273.58,2777.33 2273.75,2777.08 2273.92,2776.83C2273.97,2776.76 2274.01,2776.69 2274.06,2776.62L2274.07,2776.6C2274.07,2776.52 2274.08,2776.44 2274.08,2776.36C2274.09,2776.26 2274.1,2776.15 2274.12,2776.05C2274.23,2775.08 2274.45,2774.12 2274.74,2773.18C2275.33,2771.3 2276.24,2769.5 2277.53,2767.99C2277.83,2767.64 2278.15,2767.31 2278.48,2766.99C2278.76,2766.74 2279.04,2766.5 2279.33,2766.26C2279.63,2766.02 2279.93,2765.78 2280.25,2765.55C2280.77,2765.16 2281.32,2764.79 2281.89,2764.47C2282.48,2764.12 2283.11,2763.83 2283.75,2763.59C2285.18,2763.05 2286.69,2762.78 2288.21,2762.64C2288.13,2762.29 2288.08,2761.93 2288.08,2761.57C2288.08,2759.59 2289.3,2757.9 2291.03,2757.2L2291.03,2752.74L2287.49,2752.74C2286.52,2752.74 2285.73,2751.96 2285.73,2750.98L2285.73,2750.39C2285.73,2749.09 2286.78,2748.04 2288.08,2748.04L2297.5,2748.04C2298.8,2748.04 2299.85,2749.1 2299.85,2750.39L2299.85,2750.98C2299.85,2751.95 2299.06,2752.74 2298.09,2752.74L2294.55,2752.74ZM2478.67,2787.79C2478.01,2788.09 2477.44,2788.34 2476.96,2788.53C2476.49,2788.72 2476.04,2788.9 2475.6,2789.06C2475.17,2789.22 2474.53,2789.42 2473.71,2789.67C2472.3,2790.05 2470.91,2790.35 2469.51,2790.55C2468.12,2790.75 2466.64,2790.85 2465.09,2790.85C2461.98,2790.85 2459.1,2790.18 2456.45,2788.82C2453.81,2787.47 2451.7,2785.37 2450.11,2782.52C2448.52,2779.67 2447.73,2776.18 2447.73,2772.03C2447.73,2769.35 2448.14,2766.73 2448.96,2764.16C2449.78,2761.58 2451.03,2759.52 2452.71,2757.97C2454.1,2756.69 2455.51,2755.71 2456.93,2755.03C2458.36,2754.36 2459.75,2753.9 2461.11,2753.68C2462.46,2753.45 2463.96,2753.33 2465.6,2753.33C2468.3,2753.33 2470.53,2753.57 2472.29,2754.06C2474.05,2754.54 2475.97,2755.18 2478.07,2755.97L2478.07,2764.62C2476.68,2763.65 2475.21,2762.84 2473.66,2762.19C2472.11,2761.54 2470.18,2761.22 2467.86,2761.22C2465.19,2761.22 2463.05,2761.82 2461.45,2763.02C2459.85,2764.23 2458.73,2765.66 2458.1,2767.33C2457.48,2769 2457.16,2770.62 2457.16,2772.18C2457.16,2774.03 2457.53,2775.73 2458.25,2777.29C2458.97,2778.84 2460.07,2780.09 2461.53,2781.03C2462.99,2781.97 2464.75,2782.44 2466.82,2782.44C2468,2782.44 2469.26,2782.26 2470.59,2781.89L2470.59,2777.59L2466.42,2777.59L2466.42,2770.23L2478.67,2770.23L2478.67,2787.79ZM2353.86,2790.38L2337.3,2790.38L2337.3,2753.83L2350.05,2753.83C2351.97,2753.83 2353.62,2753.95 2354.98,2754.19C2356.35,2754.43 2357.58,2754.76 2358.67,2755.19C2359.76,2755.62 2360.69,2756.11 2361.46,2756.64C2362.23,2757.18 2362.91,2757.75 2363.52,2758.37C2364.57,2759.39 2365.49,2760.59 2366.28,2761.98C2367.07,2763.37 2367.7,2764.98 2368.16,2766.81C2368.62,2768.63 2368.86,2770.62 2368.86,2772.76C2368.86,2776.51 2368.28,2779.51 2367.14,2781.78C2366,2784.05 2364.65,2785.89 2363.1,2787.29C2360.9,2789.35 2357.82,2790.38 2353.86,2790.38ZM2383.87,2790.38L2374.62,2790.38L2374.62,2753.83L2383.87,2753.83L2383.87,2790.38ZM2400.93,2790.38L2391.67,2790.38L2391.67,2753.83L2400.93,2753.83L2400.93,2790.38ZM2417.85,2790.38L2408.68,2790.38L2408.68,2753.83L2416.9,2753.83L2432.78,2774.08L2432.78,2753.83L2442.01,2753.83L2442.01,2790.38L2433.77,2790.38L2417.85,2770.02L2417.85,2790.38ZM2305.3,2780.08L2305.28,2780.05L2307.97,2779.76C2307.89,2779.65 2307.82,2779.54 2307.74,2779.43C2307.62,2779.24 2307.5,2779.05 2307.39,2778.86C2307.18,2778.49 2307.01,2778.1 2306.91,2777.68C2306.87,2777.51 2306.84,2777.34 2306.83,2777.17C2306.82,2777.06 2306.82,2776.95 2306.81,2776.83C2306.81,2776.77 2306.8,2776.71 2306.8,2776.64C2306.72,2775.99 2306.58,2775.33 2306.39,2774.7C2306.05,2773.57 2305.55,2772.47 2304.85,2771.51C2304.58,2771.14 2304.28,2770.8 2303.94,2770.48C2303.81,2770.35 2303.67,2770.23 2303.53,2770.11C2303.36,2769.97 2303.19,2769.83 2303.03,2769.7C2302.52,2769.3 2301.99,2768.92 2301.43,2768.6C2301,2768.36 2300.55,2768.15 2300.09,2767.99C2299.24,2767.68 2298.34,2767.5 2297.44,2767.39C2296.52,2767.28 2295.59,2767.23 2294.66,2767.2L2290.9,2767.2C2290.83,2767.2 2290.76,2767.2 2290.7,2767.2C2289.77,2767.24 2288.84,2767.28 2287.91,2767.4C2287.04,2767.52 2286.18,2767.69 2285.35,2768.01C2284.96,2768.16 2284.58,2768.34 2284.22,2768.55C2283.77,2768.81 2283.35,2769.1 2282.93,2769.41C2282.68,2769.61 2282.43,2769.8 2282.19,2770.01C2282.04,2770.13 2281.89,2770.26 2281.75,2770.39C2281.58,2770.54 2281.41,2770.7 2281.26,2770.87C2280.82,2771.36 2280.44,2771.91 2280.12,2772.48C2279.75,2773.15 2279.46,2773.86 2279.23,2774.58C2279.08,2775.06 2278.96,2775.55 2278.87,2776.04C2278.84,2776.2 2278.82,2776.36 2278.8,2776.53C2278.78,2776.68 2278.76,2776.82 2278.76,2776.97L2278.76,2777.06C2278.75,2777.18 2278.75,2777.2 2278.74,2777.32C2278.72,2777.48 2278.68,2777.65 2278.64,2777.81C2278.53,2778.2 2278.36,2778.58 2278.15,2778.94C2277.99,2779.22 2277.8,2779.49 2277.62,2779.76L2280.28,2780.06L2287.07,2780.54L2278.87,2782.85C2278.8,2782.99 2278.72,2783.13 2278.65,2783.27C2278.6,2783.36 2278.55,2783.45 2278.5,2783.54C2278.32,2783.86 2278.12,2784.17 2277.89,2784.46C2277.77,2784.61 2277.63,2784.76 2277.5,2784.9C2277.24,2785.16 2276.98,2785.4 2276.7,2785.63C2276.09,2786.14 2275.43,2786.59 2274.76,2787.01L2274.64,2787.09L2274.56,2787.14L2274.56,2787.2L2311.02,2787.2L2311.02,2787.14C2310.91,2787.07 2310.8,2787.01 2310.69,2786.94C2310.57,2786.85 2310.44,2786.77 2310.31,2786.68C2309.72,2786.29 2309.14,2785.87 2308.61,2785.4C2308.28,2785.11 2307.96,2784.8 2307.69,2784.46C2307.41,2784.12 2307.19,2783.74 2306.98,2783.36L2306.95,2783.31L2299.18,2780.7L2305.3,2780.08ZM2350.5,2761.16L2346.55,2761.16L2346.55,2782.81L2350.5,2782.81C2352.92,2782.81 2355.01,2782.12 2356.79,2780.75C2358.56,2779.38 2359.44,2776.56 2359.44,2772.29C2359.44,2769.32 2358.97,2767 2358.02,2765.34C2357.06,2763.68 2355.92,2762.57 2354.58,2762.01C2353.25,2761.44 2351.89,2761.16 2350.5,2761.16ZM2292.8,2762.74L2292.8,2762.74L2292.8,2762.74C2292.81,2762.74 2292.81,2762.74 2292.82,2762.74L2292.82,2762.74L2292.82,2762.74L2292.82,2762.74L2292.83,2762.74L2292.83,2762.74L2292.83,2762.74C2292.83,2762.74 2292.84,2762.74 2292.84,2762.74L2292.84,2762.74L2292.84,2762.74C2292.85,2762.74 2292.85,2762.74 2292.85,2762.74L2292.85,2762.74L2292.86,2762.74L2292.86,2762.74L2292.87,2762.74L2292.87,2762.74L2292.87,2762.74C2292.87,2762.74 2292.87,2762.74 2292.88,2762.74L2292.88,2762.74L2292.88,2762.74C2292.88,2762.74 2292.89,2762.74 2292.89,2762.74L2292.89,2762.74L2292.89,2762.74L2292.9,2762.74L2292.9,2762.74L2292.9,2762.74L2292.9,2762.74C2292.91,2762.74 2292.91,2762.74 2292.91,2762.74L2292.92,2762.74L2292.92,2762.74C2292.92,2762.74 2292.92,2762.73 2292.93,2762.73L2292.93,2762.73L2292.93,2762.73L2292.93,2762.73L2292.94,2762.73L2292.94,2762.73L2292.94,2762.73C2292.94,2762.73 2292.95,2762.73 2292.95,2762.73L2292.95,2762.73L2292.95,2762.73C2292.96,2762.73 2292.96,2762.73 2292.96,2762.73L2292.97,2762.73L2292.97,2762.73L2292.97,2762.73L2292.98,2762.73L2292.98,2762.73L2292.98,2762.73C2292.98,2762.73 2292.99,2762.73 2292.99,2762.72L2292.99,2762.72L2292.99,2762.72C2292.99,2762.72 2293,2762.72 2293,2762.72L2293,2762.72L2293,2762.72L2293.01,2762.72L2293.01,2762.72L2293.01,2762.72L2293.01,2762.72C2293.02,2762.72 2293.02,2762.72 2293.02,2762.72L2293.03,2762.72L2293.03,2762.72C2293.03,2762.72 2293.03,2762.72 2293.04,2762.72L2293.04,2762.72L2293.04,2762.72L2293.04,2762.72L2293.05,2762.71L2293.05,2762.71L2293.05,2762.71C2293.05,2762.71 2293.06,2762.71 2293.06,2762.71L2293.06,2762.71L2293.06,2762.71C2293.07,2762.71 2293.07,2762.71 2293.07,2762.71L2293.07,2762.71L2293.07,2762.71C2293.08,2762.71 2293.09,2762.7 2293.1,2762.7L2293.1,2762.7L2293.1,2762.7C2293.1,2762.7 2293.1,2762.7 2293.11,2762.7L2293.11,2762.7L2293.11,2762.7C2293.12,2762.7 2293.12,2762.69 2293.13,2762.69L2293.13,2762.69L2293.13,2762.69C2293.14,2762.69 2293.14,2762.69 2293.14,2762.69L2293.14,2762.69L2293.14,2762.69C2293.15,2762.69 2293.16,2762.68 2293.16,2762.68L2293.17,2762.68L2293.17,2762.68C2293.17,2762.68 2293.17,2762.68 2293.18,2762.68L2293.18,2762.68L2293.18,2762.68C2293.18,2762.67 2293.19,2762.67 2293.2,2762.67L2293.2,2762.67L2293.2,2762.67C2293.2,2762.67 2293.21,2762.67 2293.21,2762.66L2293.21,2762.66L2293.21,2762.66C2293.22,2762.66 2293.22,2762.66 2293.23,2762.66L2293.23,2762.66L2293.23,2762.66C2293.24,2762.65 2293.24,2762.65 2293.24,2762.65L2293.24,2762.65L2293.24,2762.65C2293.25,2762.65 2293.26,2762.64 2293.27,2762.64L2293.27,2762.64L2293.27,2762.64C2293.46,2762.56 2293.62,2762.42 2293.74,2762.26L2293.74,2762.26L2293.74,2762.26L2293.75,2762.25L2293.75,2762.25L2293.75,2762.25L2293.75,2762.25C2293.76,2762.24 2293.76,2762.23 2293.77,2762.22L2293.77,2762.22L2293.77,2762.22L2293.77,2762.22L2293.77,2762.22L2293.77,2762.21L2293.77,2762.21L2293.77,2762.21L2293.78,2762.21L2293.78,2762.21L2293.78,2762.21C2293.78,2762.2 2293.79,2762.19 2293.79,2762.18L2293.79,2762.18L2293.8,2762.18L2293.8,2762.18L2293.8,2762.17L2293.8,2762.17L2293.8,2762.17L2293.8,2762.17L2293.8,2762.17L2293.8,2762.16L2293.8,2762.16L2293.8,2762.16L2293.81,2762.16L2293.81,2762.16L2293.81,2762.16C2293.81,2762.15 2293.82,2762.14 2293.82,2762.14L2293.82,2762.14L2293.82,2762.14L2293.82,2762.13L2293.82,2762.13L2293.82,2762.13L2293.82,2762.13L2293.83,2762.13L2293.83,2762.12L2293.83,2762.12L2293.83,2762.12L2293.83,2762.12L2293.83,2762.12L2293.83,2762.12L2293.83,2762.11C2293.83,2762.11 2293.84,2762.11 2293.84,2762.1L2293.84,2762.1L2293.84,2762.1L2293.84,2762.09L2293.84,2762.09L2293.84,2762.09L2293.84,2762.09L2293.85,2762.09L2293.85,2762.09L2293.85,2762.09L2293.85,2762.08L2293.85,2762.08L2293.85,2762.08L2293.85,2762.08L2293.85,2762.08L2293.85,2762.08L2293.85,2762.07L2293.85,2762.07L2293.85,2762.07C2293.86,2762.07 2293.86,2762.06 2293.86,2762.05L2293.86,2762.05L2293.86,2762.05L2293.86,2762.05L2293.86,2762.05L2293.86,2762.05L2293.87,2762.05L2293.87,2762.04L2293.87,2762.04L2293.87,2762.04L2293.87,2762.04L2293.87,2762.04L2293.87,2762.03L2293.87,2762.03L2293.87,2762.03L2293.87,2762.03L2293.87,2762.03L2293.87,2762.02L2293.88,2762.02C2293.88,2762.02 2293.88,2762.01 2293.88,2762.01L2293.88,2762.01L2293.88,2762.01L2293.88,2762L2293.88,2762L2293.88,2762L2293.89,2762L2293.89,2762L2293.89,2761.99L2293.89,2761.99L2293.89,2761.99L2293.89,2761.99L2293.89,2761.99L2293.89,2761.99L2293.89,2761.99L2293.89,2761.98L2293.89,2761.98L2293.89,2761.98L2293.89,2761.98C2293.89,2761.97 2293.9,2761.97 2293.9,2761.96L2293.9,2761.96L2293.9,2761.96L2293.9,2761.96L2293.9,2761.95L2293.9,2761.95L2293.9,2761.95L2293.9,2761.95L2293.9,2761.95L2293.9,2761.95L2293.91,2761.95L2293.91,2761.94L2293.91,2761.94L2293.91,2761.94L2293.91,2761.94L2293.91,2761.94L2293.91,2761.93L2293.91,2761.93L2293.91,2761.93L2293.91,2761.93L2293.91,2761.92L2293.91,2761.92L2293.91,2761.92C2293.91,2761.92 2293.91,2761.92 2293.91,2761.91L2293.91,2761.91L2293.91,2761.91L2293.92,2761.91L2293.92,2761.91L2293.92,2761.91L2293.92,2761.9L2293.92,2761.9L2293.92,2761.9L2293.92,2761.9L2293.92,2761.9L2293.92,2761.89L2293.92,2761.89L2293.92,2761.89L2293.92,2761.89L2293.92,2761.89L2293.92,2761.88L2293.92,2761.88L2293.93,2761.88L2293.93,2761.88L2293.93,2761.87L2293.93,2761.87L2293.93,2761.87C2293.93,2761.87 2293.93,2761.87 2293.93,2761.87L2293.93,2761.87L2293.93,2761.86L2293.93,2761.86L2293.93,2761.86L2293.93,2761.86L2293.93,2761.86L2293.93,2761.85L2293.93,2761.85L2293.93,2761.85L2293.93,2761.85L2293.93,2761.85L2293.93,2761.84L2293.93,2761.84L2293.93,2761.84L2293.94,2761.84L2293.94,2761.83L2293.94,2761.83L2293.94,2761.83L2293.94,2761.83L2293.94,2761.82L2293.94,2761.82L2293.94,2761.82C2293.94,2761.82 2293.94,2761.82 2293.94,2761.82L2293.94,2761.82L2293.94,2761.81L2293.94,2761.81L2293.94,2761.81L2293.94,2761.81L2293.94,2761.8L2293.94,2761.8L2293.94,2761.8L2293.94,2761.8L2293.95,2761.8L2293.95,2761.8L2293.95,2761.79L2293.95,2761.79L2293.95,2761.79L2293.95,2761.79L2293.95,2761.78L2293.95,2761.78L2293.95,2761.78L2293.95,2761.78L2293.95,2761.77L2293.95,2761.77L2293.95,2761.77C2293.95,2761.77 2293.95,2761.77 2293.95,2761.77L2293.95,2761.76L2293.95,2761.76L2293.95,2761.76L2293.95,2761.76L2293.95,2761.76L2293.95,2761.76L2293.95,2761.75L2293.95,2761.75L2293.95,2761.75L2293.95,2761.75L2293.95,2761.74L2293.95,2761.74L2293.95,2761.74L2293.95,2761.74L2293.95,2761.74L2293.96,2761.73L2293.96,2761.73L2293.96,2761.73L2293.96,2761.73L2293.96,2761.72L2293.96,2761.72L2293.96,2761.72C2293.96,2761.72 2293.96,2761.72 2293.96,2761.71L2293.96,2761.71L2293.96,2761.71L2293.96,2761.71L2293.96,2761.71L2293.96,2761.7L2293.96,2761.7L2293.96,2761.7L2293.96,2761.7L2293.96,2761.7L2293.96,2761.7L2293.96,2761.69L2293.96,2761.69L2293.96,2761.69L2293.96,2761.69L2293.96,2761.68L2293.96,2761.68L2293.96,2761.68L2293.96,2761.68L2293.96,2761.68L2293.96,2761.67L2293.96,2761.67L2293.96,2761.67C2293.96,2761.67 2293.96,2761.66 2293.96,2761.66L2293.96,2761.66L2293.96,2761.66L2293.96,2761.66L2293.96,2761.65L2293.96,2761.65L2293.96,2761.65L2293.97,2761.65L2293.97,2761.65L2293.97,2761.64L2293.97,2761.64L2293.97,2761.64L2293.97,2761.64L2293.97,2761.64L2293.97,2761.64L2293.97,2761.63L2293.97,2761.63L2293.97,2761.63L2293.97,2761.63L2293.97,2761.63L2293.97,2761.62L2293.97,2761.62L2293.97,2761.62C2293.97,2761.62 2293.97,2761.61 2293.97,2761.61L2293.97,2761.61L2293.97,2761.61L2293.97,2761.6L2293.97,2761.6L2293.97,2761.6L2293.97,2761.6L2293.97,2761.6L2293.97,2761.59L2293.97,2761.59L2293.97,2761.59L2293.97,2761.59L2293.97,2761.59L2293.97,2761.58L2293.97,2761.58L2293.97,2761.58L2293.97,2761.58L2293.97,2761.57L2293.97,2761.57C2293.97,2761.57 2293.97,2761.57 2293.97,2761.57C2293.97,2760.92 2293.44,2760.39 2292.8,2760.39L2292.79,2760.39L2292.78,2760.39C2292.14,2760.39 2291.62,2760.92 2291.62,2761.57L2291.62,2761.6L2291.62,2761.65L2291.62,2761.67L2291.62,2761.71L2291.63,2761.75L2291.63,2761.77L2291.64,2761.81L2291.65,2761.85L2291.66,2761.87L2291.66,2761.91L2291.68,2761.95L2291.69,2761.97L2291.7,2762L2291.7,2762.02L2291.72,2762.05L2291.72,2762.06L2291.74,2762.09L2291.75,2762.12L2291.77,2762.14L2291.78,2762.18L2291.79,2762.18C2291.91,2762.38 2292.09,2762.54 2292.3,2762.64L2292.3,2762.64C2292.32,2762.64 2292.33,2762.65 2292.34,2762.65L2292.34,2762.65C2292.35,2762.66 2292.36,2762.66 2292.37,2762.66L2292.38,2762.67L2292.41,2762.68L2292.43,2762.68L2292.45,2762.69L2292.47,2762.7L2292.5,2762.7L2292.53,2762.71L2292.55,2762.72L2292.57,2762.72L2292.6,2762.73L2292.62,2762.73L2292.64,2762.73L2292.67,2762.74L2292.69,2762.74L2292.72,2762.74L2292.75,2762.74L2292.77,2762.74L2292.79,2762.74C2292.8,2762.74 2292.8,2762.74 2292.8,2762.74Z" style="fill:white;"/>
            </g>
        </g>
    </g>
</svg>
